# xmcd
#
# Track frame offsets:
#        150
#        20447
#        35522
#
# Disc length: 766 seconds
#
# Revision: 2
# Processed by: cddbd v1.5.1PL2 Copyright (c) Steve Scherf et al.
# Submitted via: ExactAudioCopy v0.95b3
#
DISCID=1b02fc03
DTITLE=hitomi - Japanese girl
DYEAR=2005
DGENRE=Pop
TTITLE0=Japanese girl
TTITLE1=Venus
TTITLE2=there is... (LOVE LIFE Version 2005)
EXTD=YEAR: 2005
EXTT0=
EXTT1=
EXTT2=
PLAYORDER=
